<svg xmlns="http://www.w3.org/2000/svg" width="1280" height="350" viewBox="0 0 1280 350" role="img" aria-labelledby="title desc">
  <title id="title">Trinadh Musunuri — Software Engineer</title>
  <desc id="desc">AI agents, cloud systems, and full-stack products. M.S. Computer Science at Central Michigan University, expected May 2027.</desc>
  <defs>
    <linearGradient id="bg" x1="0" y1="0" x2="1" y2="1">
      <stop offset="0" stop-color="#141416"/>
      <stop offset="1" stop-color="#080809"/>
    </linearGradient>
    <linearGradient id="accent" x1="0" y1="0" x2="1" y2="1">
      <stop offset="0" stop-color="#ed1428"/>
      <stop offset="1" stop-color="#8b0816"/>
    </linearGradient>
  </defs>
  <rect width="1280" height="350" rx="16" fill="url(#bg)"/>
  <rect x="1" y="1" width="1278" height="348" rx="15" fill="none" stroke="#2b2b31"/>
  <rect x="0" y="45" width="5" height="260" rx="2" fill="#e50914"/>
  <g font-family="Arial, Helvetica, sans-serif">
    <text x="60" y="58" fill="#ff5260" font-size="15" font-weight="700" letter-spacing="3.5">SOFTWARE ENGINEER</text>
    <text x="57" y="137" fill="#fafafa" font-size="64" font-weight="800" letter-spacing="-2">TRINADH</text>
    <text x="57" y="205" fill="#fafafa" font-size="64" font-weight="800" letter-spacing="-2">MUSUNURI.</text>
    <text x="60" y="251" fill="#c2c2cb" font-size="23">AI agents. Cloud systems. Full-stack products.</text>
    <path d="M60 277H742" stroke="#303038"/>
    <text x="60" y="311" fill="#9696a2" font-size="16" letter-spacing="0.5">M.S. COMPUTER SCIENCE · CMU · MAY 2027</text>
  </g>
  <g transform="translate(948 74)">
    <rect x="-35" y="-17" width="240" height="240" rx="34" fill="#121214" stroke="#393039"/>
    <rect x="-13" y="5" width="196" height="196" rx="24" fill="#1c0c10" stroke="#7f1b28"/>
    <path d="M21 65L-4 96L21 127M149 65L174 96L149 127" fill="none" stroke="#ff5260" stroke-width="7" stroke-linecap="round" stroke-linejoin="round"/>
    <path d="M45 63H124V81H95V145H74V81H45Z" fill="url(#accent)"/>
    <path d="M50 162H119" stroke="#63202c" stroke-width="4" stroke-linecap="round"/>
    <circle cx="207" cy="-17" r="5" fill="#e50914"/>
    <circle cx="-35" cy="223" r="5" fill="#e50914"/>
  </g>
</svg>
